<?xml version="1.0" encoding="utf-8"?>
<!-- Generator: Adobe Illustrator 28.1.0, SVG Export Plug-In . SVG Version: 6.00 Build 0)  -->
<svg version="1.1" id="Layer_1" xmlns="http://www.w3.org/2000/svg" xmlns:xlink="http://www.w3.org/1999/xlink" x="0px" y="0px"
	 viewBox="0 0 89.8 91.4" style="enable-background:new 0 0 89.8 91.4;" xml:space="preserve">
<style type="text/css">
	.st0{fill:#999999;}
</style>
<path class="st0" d="M82.4,0H38.7c-4.1,0-7.4,3.3-7.4,7.4v12.9H7.4c-4.1,0-7.4,3.3-7.4,7.4V84c0,4.1,3.3,7.4,7.4,7.4h62.5
	c4.1,0,7.4-3.3,7.4-7.4v-3.5h5.1c4.1,0,7.4-3.3,7.4-7.4V7.4C89.8,3.3,86.5,0,82.4,0L82.4,0z M7.4,22.7h23.8v13.3H2.3v-8.2
	C2.3,24.9,4.6,22.7,7.4,22.7L7.4,22.7z M75,84c0,2.8-2.3,5.1-5.1,5.1H7.4c-2.8,0-5.1-2.3-5.1-5.1V38.3h28.9V73
	c0,4.1,3.3,7.4,7.4,7.4H75L75,84z M87.5,73c0,2.8-2.3,5.1-5.1,5.1H38.7c-2.8,0-5.1-2.3-5.1-5.1V7.4c0-2.8,2.3-5.1,5.1-5.1h43.8
	c2.8,0,5.1,2.3,5.1,5.1V73z M14.5,29.3c0,1.3-1.1,2.3-2.3,2.3s-2.3-1.1-2.3-2.3s1.1-2.3,2.3-2.3S14.5,28,14.5,29.3z M23.8,29.3
	c0,1.3-1.1,2.3-2.3,2.3s-2.3-1.1-2.3-2.3s1.1-2.3,2.3-2.3S23.8,28,23.8,29.3z M77.7,12.5h-6.2c-1.5,0-2.7,1.2-2.7,2.7V60
	c0,0.6,0.2,1.2,0.5,1.6l3.1,4.2c0.5,0.7,1.3,1.1,2.2,1.1s1.7-0.4,2.2-1.1l3.1-4.2c0.4-0.5,0.5-1.1,0.5-1.6V15.2
	C80.5,13.7,79.2,12.5,77.7,12.5L77.7,12.5z M78.1,56.2h-7v-32h7V56.2z M71.1,15.2c0-0.2,0.2-0.4,0.4-0.4h6.2c0.2,0,0.4,0.2,0.4,0.4
	v6.6h-7L71.1,15.2z M78,60.3l-3.1,4.2c-0.2,0.3-0.4,0.3-0.6,0l-3.1-4.2c-0.1-0.1-0.1-0.1-0.1-0.2v-1.4h7V60
	C78.1,60.1,78.1,60.2,78,60.3L78,60.3z M61.7,16.8c0,0.6-0.5,1.2-1.2,1.2H41.8c-0.6,0-1.2-0.5-1.2-1.2s0.5-1.2,1.2-1.2h18.8
	C61.2,15.6,61.7,16.1,61.7,16.8z M61.7,26.2c0,0.6-0.5,1.2-1.2,1.2H41.8c-0.6,0-1.2-0.5-1.2-1.2s0.5-1.2,1.2-1.2h18.8
	C61.2,25,61.7,25.5,61.7,26.2z M61.7,35.5c0,0.6-0.5,1.2-1.2,1.2H41.8c-0.6,0-1.2-0.5-1.2-1.2s0.5-1.2,1.2-1.2h18.8
	C61.2,34.4,61.7,34.9,61.7,35.5z M61.7,44.9c0,0.6-0.5,1.2-1.2,1.2H41.8c-0.6,0-1.2-0.5-1.2-1.2s0.5-1.2,1.2-1.2h18.8
	C61.2,43.7,61.7,44.3,61.7,44.9z M61.7,54.3c0,0.6-0.5,1.2-1.2,1.2H41.8c-0.6,0-1.2-0.5-1.2-1.2s0.5-1.2,1.2-1.2h18.8
	C61.2,53.1,61.7,53.6,61.7,54.3z M61.7,63.7c0,0.6-0.5,1.2-1.2,1.2H41.8c-0.6,0-1.2-0.5-1.2-1.2s0.5-1.2,1.2-1.2h18.8
	C61.2,62.5,61.7,63,61.7,63.7z"/>
</svg>
