<?xml version="1.0" encoding="utf-8"?>
<!-- Generator: Adobe Illustrator 28.1.0, SVG Export Plug-In . SVG Version: 6.00 Build 0)  -->
<svg version="1.1" id="Layer_1" xmlns="http://www.w3.org/2000/svg" xmlns:xlink="http://www.w3.org/1999/xlink" x="0px" y="0px"
	 viewBox="0 0 71.1 89.1" style="enable-background:new 0 0 71.1 89.1;" xml:space="preserve">
<style type="text/css">
	.st0{fill:#999999;}
</style>
<path class="st0" d="M66.8,25H29.7c1.5-1.9,2.4-4.2,2.4-6.6c0-5.8-4.7-10.5-10.5-10.5s-10.5,4.7-10.5,10.5c0,2.5,0.9,4.8,2.4,6.6h-9
	C1.9,25,0,26.9,0,29.3v3.1c0,2.4,1.9,4.3,4.3,4.3h0.5l21.8,30.5v19.2c0,0.9,0.4,1.8,1.2,2.3c0.5,0.3,1,0.5,1.5,0.5
	c0.3,0,0.7-0.1,1-0.2l12.5-5c1-0.4,1.7-1.4,1.7-2.5V67.2l21.8-30.5h0.5c2.4,0,4.3-1.9,4.3-4.3v-3.1C71.1,26.9,69.2,25,66.8,25
	L66.8,25z M13.3,18.4c0-4.5,3.7-8.2,8.2-8.2s8.2,3.7,8.2,8.2c0,2.7-1.3,5.1-3.4,6.6h-9.6C14.6,23.5,13.3,21,13.3,18.4L13.3,18.4z
	 M42.4,66.1c-0.1,0.2-0.2,0.4-0.2,0.7v14.6c0,0.2-0.1,0.3-0.2,0.4l-12.5,5c-0.2,0.1-0.3,0-0.4,0s-0.2-0.1-0.2-0.3V66.8
	c0-0.2-0.1-0.5-0.2-0.7l-21-29.4h55.7L42.4,66.1L42.4,66.1z M68.8,32.4c0,1.1-0.9,2-2,2H4.3c-1.1,0-2-0.9-2-2v-3.1c0-1.1,0.9-2,2-2
	h62.5c1.1,0,2,0.9,2,2V32.4z M49.6,21.1c5.8,0,10.5-4.7,10.5-10.5S55.4,0,49.6,0S39.1,4.7,39.1,10.5S43.8,21.1,49.6,21.1z M49.6,2.3
	c4.5,0,8.2,3.7,8.2,8.2s-3.7,8.2-8.2,8.2s-8.2-3.7-8.2-8.2S45.1,2.3,49.6,2.3z"/>
</svg>
