<?xml version="1.0" encoding="utf-8"?>
<!-- Generator: Adobe Illustrator 28.1.0, SVG Export Plug-In . SVG Version: 6.00 Build 0)  -->
<svg version="1.1" id="Layer_1" xmlns="http://www.w3.org/2000/svg" xmlns:xlink="http://www.w3.org/1999/xlink" x="0px" y="0px"
	 viewBox="0 0 86.7 86.7" style="enable-background:new 0 0 86.7 86.7;" xml:space="preserve">
<style type="text/css">
	.st0{fill:#999999;}
</style>
<path class="st0" d="M86.7,4.3c0-1.2-0.4-2.2-1.3-3.1c-0.8-0.8-1.9-1.3-3-1.3h0c-8.7,0-22.6,0.1-38.1,12.9
	c-11.1-3.8-22.6,0.5-33.4,12.4c-0.6,0.7-0.8,1.5-0.6,2.4c0.2,0.9,0.8,1.6,1.6,1.9l13.3,5.7c-0.5,0.8-1.1,1.7-1.6,2.6
	c-0.7,1.2-0.8,2.7-0.3,3.9l-1.6,1.6c-1.7,1.7-1.7,4.4,0,6.1L37.2,65c0.8,0.8,1.9,1.3,3,1.3c1.1,0,2.2-0.4,3-1.2l1.6-1.6
	c0.5,0.2,1.1,0.4,1.7,0.4c0.8,0,1.5-0.2,2.2-0.6c0.9-0.5,1.7-1.1,2.6-1.6l5.7,13.4c0.3,0.8,1.1,1.4,1.9,1.6c0.2,0,0.4,0.1,0.6,0.1
	c0.7,0,1.3-0.2,1.8-0.7C73.3,65,77.6,53.5,73.8,42.4C86.6,26.9,86.7,13,86.7,4.3L86.7,4.3z M42.2,14.7c-4,3.6-8.1,8.1-12.3,13.7
	l-13.2-5.7C23.3,16.8,32.2,12,42.2,14.7L42.2,14.7z M12.8,27.5c-0.2-0.1-0.2-0.2-0.2-0.3c0-0.1,0-0.2,0.1-0.3
	c0.7-0.8,1.4-1.5,2.2-2.3l13.7,5.9c-0.7,0.9-1.3,1.9-2,2.9L12.8,27.5z M38.9,63.3L23.4,47.9c-0.4-0.4-0.6-0.9-0.6-1.4s0.2-1,0.6-1.4
	l1.4-1.4L43,61.9l-1.4,1.4C40.8,64.1,39.6,64.1,38.9,63.3L38.9,63.3z M47.6,61.1c-0.8,0.5-1.7,0.3-2.4-0.3L25.9,41.5
	c-0.6-0.6-0.8-1.6-0.3-2.4C46.3,5.3,65.7,2.4,82.4,2.3h0c0.5,0,1,0.2,1.4,0.6c0.4,0.4,0.6,0.9,0.6,1.4C84.3,21,81.4,40.5,47.6,61.1
	L47.6,61.1z M59.9,74c-0.1,0.1-0.2,0.1-0.3,0.1c-0.1,0-0.2-0.1-0.3-0.2l-5.9-13.7c1-0.7,2-1.3,2.9-2l5.9,13.7
	C61.4,72.6,60.6,73.3,59.9,74L59.9,74z M63.9,70l-5.7-13.2c5.6-4.1,10.1-8.3,13.8-12.3C74.7,54.5,69.9,63.4,63.9,70L63.9,70z
	 M69.8,16.9c-3.5-3.5-9.2-3.5-12.7,0c-3.5,3.5-3.5,9.2,0,12.7c1.8,1.8,4.1,2.6,6.4,2.6c2.3,0,4.6-0.9,6.4-2.6
	C73.3,26.1,73.3,20.4,69.8,16.9L69.8,16.9z M58.7,28c-2.6-2.6-2.6-6.8,0-9.4c1.3-1.3,3-1.9,4.7-1.9s3.4,0.6,4.7,1.9
	c2.6,2.6,2.6,6.8,0,9.4C65.5,30.6,61.3,30.6,58.7,28z M29.5,76.1c-0.7,2.4-2,4.6-3.8,6.4c-1.5,1.5-3.2,2.8-5.1,4
	c-0.2,0.1-0.4,0.2-0.6,0.2c-0.4,0-0.8-0.2-1-0.6c-0.3-0.6-0.1-1.3,0.4-1.6c1.7-1,3.3-2.3,4.7-3.6c1.5-1.5,2.6-3.4,3.2-5.4
	c0.2-0.6,0.8-1,1.5-0.8C29.3,74.9,29.7,75.5,29.5,76.1L29.5,76.1z M2.2,67.4c-0.2,0.4-0.6,0.6-1,0.6c-0.2,0-0.4-0.1-0.6-0.2
	c-0.6-0.3-0.7-1.1-0.4-1.6c1.1-1.9,2.5-3.6,4-5.1c1.8-1.8,4-3.1,6.4-3.8c0.6-0.2,1.3,0.2,1.5,0.8c0.2,0.6-0.2,1.3-0.8,1.5
	c-2,0.6-3.9,1.7-5.4,3.2C4.4,64.1,3.2,65.6,2.2,67.4L2.2,67.4z M23.9,71.6c-0.1-2.5-1.1-4.8-2.9-6.4c-1.7-1.5-3.9-2.3-6.3-2.2
	c-2.6,0.1-5,1.2-6.7,3.1c-4.7,5.1-6,12.2-6.3,16c-0.1,0.8,0.2,1.6,0.8,2.2C3,84.8,3.7,85,4.4,85c0.1,0,0.2,0,0.2,0
	c4-0.4,11.5-1.7,16.6-6.9C23,76.4,23.9,74.1,23.9,71.6L23.9,71.6z M4.4,82.7c-0.2,0-0.3-0.1-0.3-0.1c0,0-0.1-0.1-0.1-0.3
	c0.2-2.8,1.3-9.8,5.7-14.7c1.3-1.4,3.1-2.2,5.1-2.3c0.1,0,0.2,0,0.3,0c1.6,0,3.2,0.6,4.3,1.6c1.3,1.2,2.1,2.9,2.2,4.8
	c0,1.8-0.7,3.5-1.9,4.8C14.8,81.3,7.4,82.4,4.4,82.7L4.4,82.7z"/>
</svg>
