<?xml version="1.0" encoding="utf-8"?>
<!-- Generator: Adobe Illustrator 28.1.0, SVG Export Plug-In . SVG Version: 6.00 Build 0)  -->
<svg version="1.1" id="Layer_1" xmlns="http://www.w3.org/2000/svg" xmlns:xlink="http://www.w3.org/1999/xlink" x="0px" y="0px"
	 viewBox="0 0 89.9 89.5" style="enable-background:new 0 0 89.9 89.5;" xml:space="preserve">
<style type="text/css">
	.st0{fill:#999999;}
</style>
<path class="st0" d="M85.6,12.2H57.8c-0.2-0.5-0.4-0.9-0.8-1.3c-1-1.2-2.1-2.3-3.3-3.3c-1.6-1.4-3.9-1.4-5.6,0l-3.6,3
	c-1.7-0.9-3.5-1.7-5.3-2.2l-0.4-4.8c-0.2-2.1-1.9-3.8-4-3.9c-1.5-0.1-3.1-0.1-4.6,0c-2.1,0.1-3.8,1.8-4,3.9l-0.4,4.8
	c-1.8,0.5-3.6,1.3-5.3,2.2l-3.7-3c-1.6-1.4-4-1.3-5.6,0c-1.2,1-2.3,2.1-3.3,3.3c-1.4,1.6-1.4,3.9,0,5.6l3.1,3.7
	c-0.9,1.7-1.7,3.5-2.2,5.3L4,25.9c-2.1,0.2-3.8,1.9-3.9,4C0,30.7,0,31.4,0,32.2c0,0.8,0,1.5,0.1,2.3c0.1,2.1,1.8,3.8,3.9,4l4.8,0.4
	c0.5,1.9,1.3,3.6,2.2,5.3l-3,3.6c-1.4,1.6-1.3,4,0,5.6c1,1.2,2.1,2.3,3.3,3.3c1.6,1.4,3.9,1.4,5.6,0l3.7-3.1
	c1.7,0.9,3.5,1.7,5.3,2.2l0.4,4.8c0.2,2.1,1.9,3.8,4,3.9c0.4,0,0.8,0,1.1,0v7.1h-8.2c-2.4,0-4.3,1.9-4.3,4.3v6.2
	c0,4.1,3.3,7.4,7.4,7.4h56.2c4.1,0,7.4-3.3,7.4-7.4V16.5C89.9,14.1,88,12.2,85.6,12.2L85.6,12.2z M28.6,60.3l-0.5-5.6
	c0-0.5-0.4-0.9-0.9-1c-2.2-0.5-4.3-1.4-6.2-2.6c-0.2-0.1-0.4-0.2-0.6-0.2c-0.3,0-0.5,0.1-0.8,0.3l-4.3,3.6c-0.7,0.6-1.8,0.6-2.5,0
	c-1.1-0.9-2.1-2-3-3c-0.6-0.7-0.6-1.8,0-2.5l3.6-4.3c0.3-0.4,0.4-0.9,0.1-1.4c-1.2-1.9-2-4-2.6-6.2c-0.1-0.5-0.5-0.8-1-0.9L4.3,36
	c-0.9-0.1-1.7-0.9-1.8-1.8c0-0.7-0.1-1.4-0.1-2.1c0-0.7,0-1.4,0.1-2.1c0.1-0.9,0.8-1.7,1.8-1.8l5.6-0.5c0.5,0,0.9-0.4,1-0.9
	c0.5-2.2,1.4-4.3,2.6-6.2c0.3-0.4,0.2-1-0.1-1.4l-3.6-4.3c-0.6-0.7-0.6-1.8,0-2.5c0.9-1.1,1.9-2.1,3-3c0.7-0.6,1.8-0.6,2.5,0
	l4.3,3.6c0.4,0.3,0.9,0.4,1.4,0.1c1.9-1.2,4-2,6.2-2.6c0.5-0.1,0.8-0.5,0.9-1l0.5-5.6c0.1-0.9,0.9-1.7,1.8-1.8
	c1.4-0.1,2.9-0.1,4.3,0c0.9,0.1,1.7,0.8,1.8,1.8L37,9.5c0,0.5,0.4,0.9,0.9,1c2.2,0.5,4.3,1.4,6.2,2.6c0.4,0.3,1,0.2,1.4-0.1l4.3-3.6
	c0.7-0.6,1.8-0.6,2.5,0c1.1,0.9,2.1,2,3,3c0.6,0.7,0.6,1.8,0,2.5l-3.6,4.3c-0.3,0.4-0.4,0.9-0.1,1.4c1.2,1.9,2,4,2.6,6.2
	c0.1,0.5,0.5,0.8,1,0.9l5.6,0.5c0.9,0.1,1.7,0.9,1.8,1.8c0,0.7,0.1,1.4,0.1,2.1c0,0.7,0,1.4-0.1,2.1c-0.1,0.9-0.8,1.7-1.8,1.8
	l-5.6,0.5c-0.5,0-0.9,0.4-1,0.9c-0.5,2.2-1.4,4.3-2.6,6.2c-0.3,0.4-0.2,1,0.1,1.4l3.6,4.3c0.6,0.7,0.6,1.8,0,2.5
	c-0.9,1.1-1.9,2.1-3,3c-0.7,0.6-1.8,0.6-2.5,0l-4.3-3.6c-0.4-0.3-0.9-0.4-1.4-0.1c-1.9,1.2-4,2-6.2,2.6c-0.5,0.1-0.8,0.5-0.9,1
	l-0.5,5.6c-0.1,0.9-0.9,1.7-1.8,1.8c-1.4,0.1-2.9,0.1-4.3,0C29.4,62,28.7,61.3,28.6,60.3L28.6,60.3z M26.2,87.2
	c-2.8,0-5.1-2.3-5.1-5.1v-6.2c0-1.1,0.9-2,2-2h50c1.1,0,2,0.9,2,2v6.2c0,2,0.8,3.8,2,5.1H26.2z M87.6,82.1c0,2.8-2.3,5.1-5.1,5.1
	s-5.1-2.3-5.1-5.1v-6.2c0-2.4-1.9-4.3-4.3-4.3H33.7v-7.1c0.4,0,0.8,0,1.1,0c2.1-0.1,3.8-1.8,4-3.9l0.4-4.8c1.8-0.5,3.6-1.3,5.3-2.2
	l3.7,3.1c1.6,1.4,4,1.3,5.6,0c1.2-1,2.3-2.1,3.3-3.3c1.4-1.6,1.4-3.9,0-5.6L54,44.1c0.9-1.7,1.7-3.5,2.2-5.3l4.8-0.4
	c2.1-0.2,3.8-1.9,3.9-4c0.1-0.8,0.1-1.5,0.1-2.3c0-0.8,0-1.5-0.1-2.3c-0.1-2.1-1.8-3.8-3.9-4l-4.8-0.4c-0.5-1.9-1.3-3.6-2.2-5.3
	l3.1-3.7c0.5-0.6,0.8-1.2,0.9-1.9h27.7c1.1,0,2,0.9,2,2L87.6,82.1L87.6,82.1z M79,29c0,0.6-0.5,1.2-1.2,1.2H73
	c-0.6,0-1.2-0.5-1.2-1.2s0.5-1.2,1.2-1.2h4.8C78.5,27.8,79,28.3,79,29z M79,38.3c0,0.6-0.5,1.2-1.2,1.2h-5.5c-0.6,0-1.2-0.5-1.2-1.2
	s0.5-1.2,1.2-1.2h5.5C78.5,37.2,79,37.7,79,38.3z M79,47.7c0,0.6-0.5,1.2-1.2,1.2H65.9c-0.6,0-1.2-0.5-1.2-1.2s0.5-1.2,1.2-1.2h11.9
	C78.5,46.6,79,47.1,79,47.7z M79,57.1c0,0.6-0.5,1.2-1.2,1.2H64.4c-0.6,0-1.2-0.5-1.2-1.2s0.5-1.2,1.2-1.2h13.4
	C78.5,55.9,79,56.5,79,57.1z M46.2,32.1c0-7.5-6.1-13.7-13.7-13.7s-13.7,6.2-13.7,13.7S25,45.8,32.5,45.8S46.2,39.6,46.2,32.1z
	 M21.2,32.1c0-6.2,5.1-11.3,11.3-11.3s11.3,5.1,11.3,11.3s-5.1,11.3-11.3,11.3S21.2,38.3,21.2,32.1z"/>
</svg>
