<?xml version="1.0" encoding="UTF-8"?>
<svg id="Layer_1" data-name="Layer 1" xmlns="http://www.w3.org/2000/svg" viewBox="0 0 395.93 138.82">
  <defs>
    <style>
      .cls-1 {
        fill: #999;
        stroke-width: 0px;
      }
    </style>
  </defs>
  <path class="cls-1" d="M2.69,18.13c.69.26,1.27.43,1.74.51s.93.13,1.36.13c.69,0,1.25-.13,1.68-.38.34-.34.52-.77.52-1.28s-.13-.9-.39-1.15c-.43-.26-1.12-.51-2.07-.77-.78-.09-1.51-.38-2.2-.9-.52-.51-.78-1.11-.78-1.79,0-.94.3-1.58.9-1.92.69-.43,1.51-.64,2.46-.64.78,0,1.81.21,3.1.64l-.26,1.02c-1.29-.43-2.24-.64-2.84-.64-.69,0-1.21.13-1.55.38-.43.26-.65.64-.65,1.15,0,.43.17.77.52,1.02.43.26,1.12.51,2.07.77,1.12.26,1.85.56,2.2.9.43.43.65,1.07.65,1.92s-.3,1.54-.9,2.05c-.6.43-1.42.64-2.46.64-.52,0-1.06-.04-1.62-.13s-1.19-.26-1.87-.51l.39-1.02Z"/>
  <path class="cls-1" d="M13.03,10.45h1.94v-2.43l1.03-.26v2.69h4.65v.9h-4.65v4.61c0,.94.17,1.67.52,2.18.26.51.78.77,1.55.77.17,0,.37-.02.58-.06.22-.04.5-.11.84-.19.43-.09.82-.21,1.16-.38l.26,1.03c-.26.17-.69.3-1.29.38-.86.17-1.38.26-1.55.26-1.12,0-1.94-.34-2.46-1.02-.43-.68-.65-1.67-.65-2.95v-4.61h-1.94v-.9Z"/>
  <path class="cls-1" d="M24.92,19.16c-.52-.51-.78-1.24-.78-2.18s.3-1.67.9-2.18c.6-.51,1.42-.77,2.46-.77h1.42c.43,0,.86.04,1.29.13,0-1.2-.13-2.01-.39-2.43-.34-.43-.95-.64-1.81-.64-.43,0-.93.04-1.49.13s-1.14.26-1.74.51l-.39-1.02c.69-.26,1.31-.43,1.87-.51s1.1-.13,1.62-.13c1.29,0,2.2.26,2.71.77.43.68.65,1.75.65,3.2v4.23l.26,1.41-1.03.13-.26-1.15c-.17.17-.6.43-1.29.77-.69.26-1.25.38-1.68.38-.86,0-1.64-.21-2.33-.64ZM28.92,18.39c.6-.34,1.03-.64,1.29-.9v-2.43c-.43,0-.86-.02-1.29-.06-.43-.04-.86-.06-1.29-.06-.69,0-1.29.17-1.81.51-.43.43-.65.9-.65,1.41,0,1.28.69,1.92,2.07,1.92.43,0,.99-.13,1.68-.38Z"/>
  <path class="cls-1" d="M35.77,18.64h2.33v-7.56h-2.33v-.9h3.36l.13,1.15c.17-.17.41-.32.71-.45.3-.13.67-.28,1.1-.45.78-.26,1.46-.38,2.07-.38h.13v1.15h-.13c-.6,0-1.29.13-2.07.38-.43.17-.8.3-1.1.38-.3.09-.54.17-.71.26v6.41h3.23v1.02h-6.72v-1.02Z"/>
  <path class="cls-1" d="M46.37,10.45h1.94v-2.43l1.03-.26v2.69h4.65v.9h-4.65v4.61c0,.94.17,1.67.52,2.18.26.51.78.77,1.55.77.17,0,.37-.02.58-.06.22-.04.5-.11.84-.19.43-.09.82-.21,1.16-.38l.26,1.03c-.26.17-.69.3-1.29.38-.86.17-1.38.26-1.55.26-1.12,0-1.94-.34-2.46-1.02-.43-.68-.65-1.67-.65-2.95v-4.61h-1.94v-.9Z"/>
  <path class="cls-1" d="M57.36,47.79c4.74,5.51,7.11,13.34,7.11,23.51,0,11.02-2.48,19.45-7.43,25.3-4.95,5.85-12.08,8.78-21.39,8.78-5.86,0-10.86-1.28-14.99-3.84l2.33-1.67c3.62,2.05,7.84,3.07,12.67,3.07,8.44,0,14.93-2.69,19.45-8.07,4.52-5.38,6.79-13.15,6.79-23.32,0-9.57-2.15-16.85-6.46-21.84-4.31-5-10.55-7.49-18.74-7.49s-14.88,2.58-19.32,7.75c-4.44,5.17-6.66,12.71-6.66,22.61,0,5.47.69,10.23,2.07,14.28,1.38,4.06,3.36,7.37,5.95,9.93l39.94-28.06v1.28L.88,110.76h-.39c-.17,0-.3-.04-.39-.13-.17-.34-.13-.6.13-.77l16.28-11.53c-5.69-5.64-8.53-14.18-8.53-25.62,0-10.68,2.46-18.88,7.37-24.6s12.06-8.58,21.45-8.58,15.81,2.75,20.55,8.26ZM7.08,110.37c-.09,0-.13-.04-.13-.13l.13-.13.13.13c0,.08-.04.13-.13.13ZM13.67,110.25c0,.08-.04.13-.13.13s-.13-.04-.13-.13l.13-.13c.09,0,.13.04.13.13ZM20.14,110.25c0,.08-.04.13-.13.13l-.13-.13.13-.13c.09,0,.13.04.13.13ZM26.6,110.37c-.17,0-.26-.04-.26-.13l.26-.13.13.13c0,.08-.04.13-.13.13ZM33.32,97.69c0,.26-.09.38-.26.38-.26,0-.39-.13-.39-.38s.13-.38.39-.38c.17,0,.26.13.26.38ZM33.06,110.37c-.09,0-.13-.04-.13-.13l.13-.13.13.13c0,.08-.04.13-.13.13ZM39.91,91.41c0,.26-.13.38-.39.38s-.39-.13-.39-.38.13-.38.39-.38.39.13.39.38ZM39.91,97.69c0,.26-.13.38-.39.38-.17,0-.26-.13-.26-.38s.09-.38.26-.38c.26,0,.39.13.39.38ZM39.65,110.25c0,.08-.04.13-.13.13s-.13-.04-.13-.13l.13-.13c.09,0,.13.04.13.13ZM46.5,85.13c0,.34-.17.51-.52.51s-.52-.17-.52-.51.17-.51.52-.51.52.17.52.51ZM46.5,91.41c0,.26-.17.38-.52.38-.26,0-.39-.13-.39-.38s.13-.38.39-.38c.34,0,.52.13.52.38ZM46.11,110.25c0,.08-.04.13-.13.13l-.13-.13.13-.13c.09,0,.13.04.13.13ZM53.09,78.86c0,.34-.17.51-.52.51-.43,0-.65-.17-.65-.51,0-.43.22-.64.65-.64.34,0,.52.21.52.64ZM53.09,85.13c0,.34-.17.51-.52.51s-.52-.17-.52-.51.17-.51.52-.51.52.17.52.51ZM52.96,91.41c0,.26-.13.38-.39.38-.34,0-.52-.13-.52-.38s.17-.38.52-.38c.26,0,.39.13.39.38ZM52.58,110.37c-.09,0-.13-.04-.13-.13l.13-.13.13.13c0,.08-.04.13-.13.13ZM59.3,103.97c0,.17-.09.26-.26.26s-.26-.08-.26-.26.09-.26.26-.26.26.09.26.26ZM59.17,110.25c0,.08-.04.13-.13.13s-.13-.04-.13-.13l.13-.13c.09,0,.13.04.13.13ZM65.89,91.41c0,.26-.13.38-.39.38s-.39-.13-.39-.38.13-.38.39-.38.39.13.39.38ZM65.89,97.69c0,.26-.13.38-.39.38-.17,0-.26-.13-.26-.38s.09-.38.26-.38c.26,0,.39.13.39.38ZM65.76,103.97c0,.17-.09.26-.26.26s-.26-.08-.26-.26.09-.26.26-.26.26.09.26.26ZM65.63,110.25c0,.08-.04.13-.13.13l-.13-.13.13-.13c.09,0,.13.04.13.13ZM72.35,60.41l-5.04,3.59-.13-1.28,4.52-3.2c.34-.34.6-.3.78.13.17.34.13.6-.13.77ZM72.87,66.3c0,.51-.3.77-.9.77-.52,0-.78-.26-.78-.77,0-.6.26-.9.78-.9.6,0,.9.3.9.9ZM72.74,72.58c0,.43-.26.64-.78.64-.43,0-.65-.21-.65-.64,0-.51.22-.77.65-.77.52,0,.78.26.78.77ZM72.61,78.86c0,.34-.22.51-.65.51-.34,0-.52-.17-.52-.51,0-.43.17-.64.52-.64.43,0,.65.21.65.64ZM72.48,85.13c0,.34-.17.51-.52.51s-.52-.17-.52-.51.17-.51.52-.51.52.17.52.51ZM72.48,91.41c0,.26-.17.38-.52.38-.26,0-.39-.13-.39-.38s.13-.38.39-.38c.34,0,.52.13.52.38ZM72.35,97.69c0,.26-.13.38-.39.38-.17,0-.26-.13-.26-.38s.09-.38.26-.38c.26,0,.39.13.39.38ZM72.22,103.97c0,.17-.09.26-.26.26-.09,0-.13-.08-.13-.26s.04-.26.13-.26c.17,0,.26.09.26.26ZM72.22,110.25c0,.08-.09.13-.26.13l-.13-.13.13-.13c.09,0,.17.04.26.13Z"/>
  <path class="cls-1" d="M72.35,59.51l4.65,3.84c-.09.17-.13.38-.13.64s-.04.47-.13.64l-5.04-4.23c-.34-.26-.39-.51-.13-.77.26-.26.52-.3.78-.13ZM78.42,91.41c0,.26-.13.38-.39.38s-.39-.13-.39-.38.13-.38.39-.38.39.13.39.38ZM78.42,97.69c0,.26-.13.38-.39.38s-.39-.13-.39-.38.13-.38.39-.38.39.13.39.38ZM78.29,103.97c0,.17-.09.26-.26.26s-.26-.08-.26-.26.09-.26.26-.26.26.09.26.26ZM78.17,110.25c0,.08-.04.13-.13.13s-.13-.04-.13-.13l.13-.13c.09,0,.13.04.13.13ZM110.73,102.62c1.38-.21,2.8-.53,4.27-.96l2.2,1.79c-3.53,1.28-7.07,1.92-10.6,1.92-8.87,0-15.62-2.82-20.23-8.46-4.61-5.64-6.91-13.71-6.91-24.21s2.43-18.85,7.3-24.53c4.87-5.68,11.87-8.52,21-8.52,3.27,0,6.55.51,9.82,1.54,3.27,1.02,6.2,2.43,8.79,4.23l-.78,2.43h-.78c-2.41-1.79-5.08-3.18-8.01-4.16-2.93-.98-5.95-1.47-9.05-1.47-8.36,0-14.71,2.6-19.06,7.81s-6.53,12.77-6.53,22.68,2.09,17.32,6.27,22.48c4.18,5.17,10.19,7.75,18.03,7.75,1.46,0,2.89-.11,4.26-.32ZM84.24,103.97c0,.17-.04.26-.13.26-.17,0-.26-.08-.26-.26s.09-.26.26-.26c.09,0,.13.09.13.26ZM84.11,110.37c-.09,0-.13-.04-.13-.13l.13-.13.13.13c0,.08-.04.13-.13.13ZM132.83,110.63c-.09.09-.26.13-.52.13-.17,0-.26-.04-.26-.13l-46.53-38.69v-1.54l34.77,29.08c1.81-.85,3.62-1.96,5.43-3.33l.78.26-.26,2.43c-.6.43-1.23.83-1.87,1.22-.65.38-1.31.79-2,1.22l10.34,8.58c.26.17.3.43.13.77ZM90.57,85.13c0,.34-.17.51-.52.51s-.52-.17-.52-.51.17-.51.52-.51.52.17.52.51ZM90.31,110.25c0,.08-.09.13-.26.13l-.13-.13.13-.13c.09,0,.17.04.26.13ZM96.65,85.13c0,.34-.17.51-.52.51s-.52-.17-.52-.51.17-.51.52-.51.52.17.52.51ZM96.52,91.41c0,.26-.13.38-.39.38s-.39-.13-.39-.38.13-.38.39-.38.39.13.39.38ZM96.26,110.25c0,.08-.04.13-.13.13l-.13-.13.13-.13c.09,0,.13.04.13.13ZM102.59,91.41c0,.26-.13.38-.39.38s-.39-.13-.39-.38.13-.38.39-.38.39.13.39.38ZM102.46,97.69c0,.26-.09.38-.26.38-.26,0-.39-.13-.39-.38s.13-.38.39-.38c.17,0,.26.13.26.38ZM102.2,110.37c-.09,0-.13-.04-.13-.13l.13-.13.13.13c0,.08-.04.13-.13.13ZM108.54,97.69c0,.26-.09.38-.26.38-.26,0-.39-.13-.39-.38s.13-.38.39-.38c.17,0,.26.13.26.38ZM108.28,110.37c-.17,0-.26-.04-.26-.13l.26-.13.13.13c0,.08-.04.13-.13.13ZM114.35,110.25c0,.08-.04.13-.13.13l-.13-.13.13-.13c.09,0,.13.04.13.13ZM120.43,110.25c0,.08-.04.13-.13.13s-.13-.04-.13-.13l.13-.13c.09,0,.13.04.13.13ZM126.37,110.37c-.09,0-.13-.04-.13-.13l.13-.13.13.13c0,.08-.04.13-.13.13Z"/>
  <path class="cls-1" d="M188.02,60.41l-55.32,50.22c0,.09-.13.13-.39.13-.17,0-.3-.04-.39-.13-.17-.26-.13-.51.13-.77l26.75-24.47v-42.79h-9.56l-11.11.13-.39-.51.39-2.18h43.94l.26.51-.39,2.18-10.73-.13h-9.82v40.48l25.98-23.57c.17-.17.43-.17.78,0,.17.34.13.64-.13.9ZM138.65,110.25c0,.08-.04.13-.13.13s-.13-.04-.13-.13l.13-.13c.09,0,.13.04.13.13ZM144.85,103.97c0,.17-.04.26-.13.26-.17,0-.26-.08-.26-.26s.09-.26.26-.26c.09,0,.13.09.13.26ZM144.73,110.37c-.17,0-.26-.04-.26-.13l.26-.13.13.13c0,.08-.04.13-.13.13ZM151.06,103.97c0,.17-.09.26-.26.26s-.26-.08-.26-.26.09-.26.26-.26.26.09.26.26ZM150.93,110.25c0,.08-.04.13-.13.13l-.13-.13.13-.13c.09,0,.13.04.13.13ZM157,110.37c-.09,0-.13-.04-.13-.13l.13-.13.13.13c0,.08-.04.13-.13.13ZM161.4,89.88v14.99h-2.58v-12.55l2.58-2.43ZM163.21,110.25c0,.08-.04.13-.13.13l-.13-.13.13-.13c.09,0,.13.04.13.13ZM169.8,85.13c0,.34-.17.51-.52.51s-.52-.17-.52-.51.17-.51.52-.51.52.17.52.51ZM169.67,91.41c0,.26-.13.38-.39.38s-.39-.13-.39-.38.13-.38.39-.38.39.13.39.38ZM169.54,97.69c0,.26-.09.38-.26.38-.26,0-.39-.13-.39-.38s.13-.38.39-.38c.17,0,.26.13.26.38ZM169.54,103.97c0,.17-.09.26-.26.26s-.26-.08-.26-.26.09-.26.26-.26.26.09.26.26ZM169.28,110.37c-.09,0-.13-.04-.13-.13l.13-.13.13.13c0,.08-.04.13-.13.13ZM176,78.86c0,.34-.22.51-.65.51-.34,0-.52-.17-.52-.51,0-.43.17-.64.52-.64.43,0,.65.21.65.64ZM175.87,85.13c0,.34-.17.51-.52.51s-.52-.17-.52-.51.17-.51.52-.51.52.17.52.51ZM175.87,91.41c0,.26-.17.38-.52.38-.26,0-.39-.13-.39-.38s.13-.38.39-.38c.34,0,.52.13.52.38ZM175.74,97.69c0,.26-.13.38-.39.38-.17,0-.26-.13-.26-.38s.09-.38.26-.38c.26,0,.39.13.39.38ZM175.61,103.97c0,.17-.09.26-.26.26-.09,0-.13-.08-.13-.26s.04-.26.13-.26c.17,0,.26.09.26.26ZM175.49,110.25c0,.08-.04.13-.13.13l-.13-.13.13-.13c.09,0,.13.04.13.13ZM182.21,72.58c0,.43-.22.64-.65.64s-.65-.21-.65-.64c0-.51.22-.77.65-.77s.65.26.65.77ZM182.21,78.86c0,.34-.22.51-.65.51s-.65-.17-.65-.51c0-.43.22-.64.65-.64s.65.21.65.64ZM182.08,85.13c0,.34-.17.51-.52.51s-.52-.17-.52-.51.17-.51.52-.51.52.17.52.51ZM181.95,91.41c0,.26-.13.38-.39.38s-.39-.13-.39-.38.13-.38.39-.38.39.13.39.38ZM181.82,97.69c0,.26-.09.38-.26.38-.26,0-.39-.13-.39-.38s.13-.38.39-.38c.17,0,.26.13.26.38ZM181.82,103.97c0,.17-.09.26-.26.26s-.26-.08-.26-.26.09-.26.26-.26.26.09.26.26ZM181.69,110.25c0,.08-.04.13-.13.13s-.13-.04-.13-.13l.13-.13c.09,0,.13.04.13.13ZM188.54,66.3c0,.51-.3.77-.9.77-.52,0-.78-.26-.78-.77,0-.6.26-.9.78-.9.6,0,.9.3.9.9ZM188.41,72.58c0,.43-.26.64-.78.64-.43,0-.65-.21-.65-.64,0-.51.22-.77.65-.77.52,0,.78.26.78.77ZM188.28,78.86c0,.34-.22.51-.65.51-.34,0-.52-.17-.52-.51,0-.43.17-.64.52-.64.43,0,.65.21.65.64ZM188.15,85.13c0,.34-.17.51-.52.51s-.52-.17-.52-.51.17-.51.52-.51.52.17.52.51ZM188.15,91.41c0,.26-.17.38-.52.38-.26,0-.39-.13-.39-.38s.13-.38.39-.38c.34,0,.52.13.52.38ZM188.02,97.69c0,.26-.13.38-.39.38-.17,0-.26-.13-.26-.38s.09-.38.26-.38c.26,0,.39.13.39.38ZM187.89,103.97c0,.17-.09.26-.26.26-.09,0-.13-.08-.13-.26s.04-.26.13-.26c.17,0,.26.09.26.26ZM187.89,110.25c0,.08-.09.13-.26.13l-.13-.13.13-.13c.09,0,.17.04.26.13Z"/>
  <path class="cls-1" d="M187.5,59.51l10.86-4.61v1.15l-10.47,4.36-.26.13c-.26,0-.39-.13-.39-.38-.26-.43-.17-.64.26-.64ZM194.48,66.3c0,.51-.26.77-.78.77s-.78-.26-.78-.77c0-.6.26-.9.78-.9s.78.3.78.9ZM194.35,72.58c0,.43-.22.64-.65.64s-.65-.21-.65-.64c0-.51.22-.77.65-.77s.65.26.65.77ZM194.35,78.86c0,.34-.22.51-.65.51s-.65-.17-.65-.51c0-.43.22-.64.65-.64s.65.21.65.64ZM194.23,85.13c0,.34-.17.51-.52.51s-.52-.17-.52-.51.17-.51.52-.51.52.17.52.51ZM194.1,91.41c0,.26-.13.38-.39.38s-.39-.13-.39-.38.13-.38.39-.38.39.13.39.38ZM194.1,97.69c0,.26-.13.38-.39.38s-.39-.13-.39-.38.13-.38.39-.38.39.13.39.38ZM193.97,103.97c0,.17-.09.26-.26.26s-.26-.08-.26-.26.09-.26.26-.26.26.09.26.26ZM193.84,110.25c0,.08-.04.13-.13.13s-.13-.04-.13-.13l.13-.13c.09,0,.13.04.13.13ZM199.78,110.37c-.09,0-.13-.04-.13-.13l.13-.13.13.13c0,.08-.04.13-.13.13ZM248.12,35.3l-40.71,16.91v-1.15l17.45-7.17c-2.07-.85-4.52-1.37-7.37-1.54l-13.31.13v35.23l14.86.13c4.74-1.2,8.36-3.52,10.86-6.98,2.5-3.46,3.75-7.54,3.75-12.24s-1.29-8.58-3.88-11.4l2.71-1.15c2.58,3.25,3.88,7.39,3.88,12.43s-1.31,9.35-3.94,13.2c-2.63,3.84-6.44,6.53-11.44,8.07,2.84,4.61,5.73,8.8,8.66,12.56,2.93,3.76,6.33,7.64,10.21,11.66l.13.51c-.34.17-.62.34-.84.51s-.5.34-.84.51l-.91-.26c-3.96-3.84-7.39-7.82-10.27-11.92s-5.84-8.46-8.85-13.07h-14.09v24.6h-2.58V40.04l15.38-.13c4.39,0,8.1.85,11.12,2.56l19.64-8.2c.26-.17.47-.09.65.26.09.34,0,.6-.26.77ZM205.86,110.25c0,.08-.04.13-.13.13l-.13-.13.13-.13c.09,0,.13.04.13.13ZM212.71,53.62c0,.68-.3,1.03-.9,1.03-.69,0-1.03-.34-1.03-1.03,0-.6.34-.9,1.03-.9.6,0,.9.3.9.9ZM212.71,59.9c0,.6-.3.9-.9.9s-.9-.3-.9-.9c0-.51.3-.77.9-.77s.9.26.9.77ZM212.58,66.3c0,.51-.26.77-.78.77s-.78-.26-.78-.77c0-.6.26-.9.78-.9s.78.3.78.9ZM212.45,72.58c0,.43-.22.64-.65.64s-.65-.21-.65-.64c0-.51.22-.77.65-.77s.65.26.65.77ZM212.32,85.13c0,.34-.17.51-.52.51s-.52-.17-.52-.51.17-.51.52-.51.52.17.52.51ZM212.19,91.41c0,.26-.13.38-.39.38s-.39-.13-.39-.38.13-.38.39-.38.39.13.39.38ZM212.06,97.69c0,.26-.09.38-.26.38-.26,0-.39-.13-.39-.38s.13-.38.39-.38c.17,0,.26.13.26.38ZM212.06,103.97c0,.17-.09.26-.26.26s-.26-.08-.26-.26.09-.26.26-.26.26.09.26.26ZM211.8,110.37c-.09,0-.13-.04-.13-.13l.13-.13.13.13c0,.08-.04.13-.13.13ZM218.78,53.62c0,.68-.34,1.03-1.03,1.03-.6,0-.9-.34-.9-1.03,0-.6.3-.9.9-.9.69,0,1.03.3,1.03.9ZM218.65,59.9c0,.6-.3.9-.9.9-.52,0-.78-.3-.78-.9,0-.51.26-.77.78-.77.6,0,.9.26.9.77ZM218.65,66.3c0,.51-.3.77-.9.77-.52,0-.78-.26-.78-.77,0-.6.26-.9.78-.9.6,0,.9.3.9.9ZM218.52,72.58c0,.43-.26.64-.78.64-.43,0-.65-.21-.65-.64,0-.51.22-.77.65-.77.52,0,.78.26.78.77ZM218.26,91.41c0,.26-.17.38-.52.38-.26,0-.39-.13-.39-.38s.13-.38.39-.38c.34,0,.52.13.52.38ZM218.13,97.69c0,.26-.13.38-.39.38-.17,0-.26-.13-.26-.38s.09-.38.26-.38c.26,0,.39.13.39.38ZM218.01,103.97c0,.17-.09.26-.26.26-.09,0-.13-.08-.13-.26s.04-.26.13-.26c.17,0,.26.09.26.26ZM218.01,110.25c0,.08-.09.13-.26.13l-.13-.13.13-.13c.09,0,.17.04.26.13ZM224.86,53.62c0,.68-.34,1.03-1.03,1.03-.6,0-.9-.34-.9-1.03,0-.6.3-.9.9-.9.69,0,1.03.3,1.03.9ZM224.73,59.9c0,.6-.3.9-.91.9s-.9-.3-.9-.9c0-.51.3-.77.9-.77s.91.26.91.77ZM224.6,66.3c0,.51-.26.77-.78.77s-.78-.26-.78-.77c0-.6.26-.9.78-.9s.78.3.78.9ZM224.21,97.69c0,.26-.13.38-.39.38s-.39-.13-.39-.38.13-.38.39-.38.39.13.39.38ZM224.08,103.97c0,.17-.09.26-.26.26s-.26-.08-.26-.26.09-.26.26-.26.26.09.26.26ZM223.95,110.25c0,.08-.04.13-.13.13s-.13-.04-.13-.13l.13-.13c.09,0,.13.04.13.13ZM230.41,85.13c0,.34-.17.51-.52.51s-.52-.17-.52-.51.17-.51.52-.51.52.17.52.51ZM230.03,103.97c0,.17-.04.26-.13.26-.17,0-.26-.08-.26-.26s.09-.26.26-.26c.09,0,.13.09.13.26ZM229.9,110.37c-.09,0-.13-.04-.13-.13l.13-.13.13.13c0,.08-.04.13-.13.13ZM236.49,78.86c0,.34-.22.51-.65.51-.34,0-.52-.17-.52-.51,0-.43.17-.64.52-.64.43,0,.65.21.65.64ZM236.36,85.13c0,.34-.17.51-.52.51s-.52-.17-.52-.51.17-.51.52-.51.52.17.52.51ZM236.36,91.41c0,.26-.17.38-.52.38-.26,0-.39-.13-.39-.38s.13-.38.39-.38c.34,0,.52.13.52.38ZM235.97,110.25c0,.08-.04.13-.13.13l-.13-.13.13-.13c.09,0,.13.04.13.13ZM243.08,41.06c0,.77-.39,1.15-1.16,1.15s-1.16-.38-1.16-1.15.39-1.15,1.16-1.15,1.16.38,1.16,1.15ZM242.95,47.34c0,.77-.34,1.15-1.03,1.15s-1.03-.38-1.03-1.15c0-.68.34-1.02,1.03-1.02s1.03.34,1.03,1.02ZM242.82,53.62c0,.68-.3,1.03-.91,1.03-.69,0-1.03-.34-1.03-1.03,0-.6.34-.9,1.03-.9.6,0,.91.3.91.9ZM242.82,59.9c0,.6-.3.9-.91.9s-.9-.3-.9-.9c0-.51.3-.77.9-.77s.91.26.91.77ZM242.69,66.3c0,.51-.26.77-.78.77s-.78-.26-.78-.77c0-.6.26-.9.78-.9s.78.3.78.9ZM242.56,72.58c0,.43-.21.64-.65.64s-.65-.21-.65-.64c0-.51.21-.77.65-.77s.65.26.65.77ZM242.56,78.86c0,.34-.21.51-.65.51s-.65-.17-.65-.51c0-.43.21-.64.65-.64s.65.21.65.64ZM242.43,85.13c0,.34-.17.51-.52.51s-.52-.17-.52-.51.17-.51.52-.51.52.17.52.51ZM242.3,91.41c0,.26-.13.38-.39.38s-.39-.13-.39-.38.13-.38.39-.38.39.13.39.38ZM242.17,97.69c0,.26-.09.38-.26.38-.26,0-.39-.13-.39-.38s.13-.38.39-.38c.17,0,.26.13.26.38ZM241.92,110.37c-.09,0-.13-.04-.13-.13l.13-.13.13.13c0,.08-.04.13-.13.13ZM249.02,41.06c0,.77-.39,1.15-1.16,1.15-.26,0-.52-.11-.78-.32-.26-.21-.39-.49-.39-.83s.13-.62.39-.83.52-.32.78-.32c.78,0,1.16.38,1.16,1.15ZM249.02,47.34c0,.77-.39,1.15-1.16,1.15-.69,0-1.03-.38-1.03-1.15,0-.68.34-1.02,1.03-1.02.78,0,1.16.34,1.16,1.02ZM248.89,53.62c0,.68-.34,1.03-1.03,1.03-.6,0-.9-.34-.9-1.03,0-.6.3-.9.9-.9.69,0,1.03.3,1.03.9ZM248.77,59.9c0,.6-.3.9-.91.9-.52,0-.78-.3-.78-.9,0-.51.26-.77.78-.77.6,0,.91.26.91.77ZM248.77,66.3c0,.51-.3.77-.91.77-.52,0-.78-.26-.78-.77,0-.6.26-.9.78-.9.6,0,.91.3.91.9ZM248.64,72.58c0,.43-.26.64-.78.64-.43,0-.65-.21-.65-.64,0-.51.22-.77.65-.77.52,0,.78.26.78.77ZM248.51,78.86c0,.34-.22.51-.65.51-.34,0-.52-.17-.52-.51,0-.43.17-.64.52-.64.43,0,.65.21.65.64ZM248.38,85.13c0,.34-.17.51-.52.51s-.52-.17-.52-.51.17-.51.52-.51.52.17.52.51ZM248.38,91.41c0,.26-.17.38-.52.38-.26,0-.39-.13-.39-.38s.13-.38.39-.38c.34,0,.52.13.52.38ZM248.25,97.69c0,.26-.13.38-.39.38-.17,0-.26-.13-.26-.38s.09-.38.26-.38c.26,0,.39.13.39.38ZM248.12,103.97c0,.17-.09.26-.26.26-.09,0-.13-.08-.13-.26s.04-.26.13-.26c.17,0,.26.09.26.26ZM248.12,110.25c0,.08-.09.13-.26.13l-.13-.13.13-.13c.09,0,.17.04.26.13Z"/>
  <path class="cls-1" d="M260.4,14.54c0,.17-.04.3-.13.38l-12.02,11.91c-.09.09-.22.13-.39.13s-.3-.04-.39-.13l-12.02-11.91c-.34-.34-.34-.6,0-.77l12.02-11.91c.17-.17.3-.26.39-.26s.22.09.39.26l12.02,11.91c.09.09.13.21.13.38ZM247.86,3.4l-11.24,11.15,11.24,11.15,11.24-11.15-11.24-11.15ZM247.86,9.04l5.56,5.25-.65.77-4.39-4.1v9.22h-1.03v-9.22l-4.39,4.1-.65-.77,5.56-5.25Z"/>
  <path class="cls-1" d="M304.73,47.79c4.74,5.51,7.11,13.34,7.11,23.51,0,11.02-2.48,19.45-7.43,25.3-4.95,5.85-12.08,8.78-21.39,8.78s-15.7-2.82-20.48-8.46c-4.78-5.64-7.17-13.71-7.17-24.21,0-12.38,3.32-21.39,9.95-27.03l2.97,1.02c-3.27,2.48-5.79,5.87-7.56,10.18-1.77,4.31-2.65,9.54-2.65,15.69,0,9.82,2.13,17.34,6.4,22.55,4.27,5.21,10.45,7.81,18.55,7.81s14.93-2.69,19.45-8.07,6.79-13.15,6.79-23.32c0-9.57-2.15-16.85-6.46-21.84-4.31-5-10.55-7.49-18.74-7.49-1.72,0-3.38.11-4.98.32-1.59.21-3.12.58-4.59,1.09l26.75,9.35,1.03,1.54-54.54-19.22c-.34-.17-.43-.38-.26-.64,0-.43.22-.55.65-.38l22.62,7.94c3.88-1.79,8.36-2.69,13.44-2.69,8.96,0,15.81,2.75,20.55,8.26ZM255.48,47.34c0,.77-.34,1.15-1.03,1.15-.78,0-1.16-.38-1.16-1.15,0-.68.39-1.02,1.16-1.02.69,0,1.03.34,1.03,1.02ZM254.84,91.41c0,.26-.13.38-.39.38-.34,0-.52-.13-.52-.38s.17-.38.52-.38c.26,0,.39.13.39.38ZM254.71,97.69c0,.26-.09.38-.26.38-.26,0-.39-.13-.39-.38s.13-.38.39-.38c.17,0,.26.13.26.38ZM254.58,103.97c0,.17-.04.26-.13.26-.17,0-.26-.08-.26-.26s.09-.26.26-.26c.09,0,.13.09.13.26ZM254.45,110.37c-.09,0-.13-.04-.13-.13l.13-.13.13.13c0,.08-.04.13-.13.13ZM261.17,103.97c0,.17-.09.26-.26.26s-.26-.08-.26-.26.09-.26.26-.26.26.09.26.26ZM261.04,110.25c0,.08-.04.13-.13.13s-.13-.04-.13-.13l.13-.13c.09,0,.13.04.13.13ZM268.28,59.9c0,.6-.3.9-.9.9-.52,0-.78-.3-.78-.9,0-.51.26-.77.78-.77.6,0,.9.26.9.77ZM268.15,66.3c0,.51-.26.77-.78.77s-.78-.26-.78-.77c0-.6.26-.9.78-.9s.78.3.78.9ZM268.15,72.58c0,.43-.26.64-.78.64-.43,0-.65-.21-.65-.64,0-.51.22-.77.65-.77.52,0,.78.26.78.77ZM268.02,78.86c0,.34-.22.51-.65.51-.34,0-.52-.17-.52-.51,0-.43.17-.64.52-.64.43,0,.65.21.65.64ZM267.89,85.13c0,.34-.17.51-.52.51s-.52-.17-.52-.51.17-.51.52-.51.52.17.52.51ZM267.89,91.41c0,.26-.17.38-.52.38-.26,0-.39-.13-.39-.38s.13-.38.39-.38c.34,0,.52.13.52.38ZM267.5,110.25c0,.08-.04.13-.13.13l-.13-.13.13-.13c.09,0,.13.04.13.13ZM274.87,53.62c0,.68-.3,1.03-.91,1.03-.69,0-1.03-.34-1.03-1.03,0-.6.34-.9,1.03-.9.6,0,.91.3.91.9ZM274.74,59.9c0,.6-.26.9-.78.9-.6,0-.9-.3-.9-.9,0-.51.3-.77.9-.77.52,0,.78.26.78.77ZM274.74,66.3c0,.51-.26.77-.78.77-.6,0-.9-.26-.9-.77,0-.6.3-.9.9-.9.52,0,.78.3.78.9ZM274.61,72.58c0,.43-.21.64-.65.64-.52,0-.78-.21-.78-.64,0-.51.26-.77.78-.77.43,0,.65.26.65.77ZM274.48,78.86c0,.34-.17.51-.52.51-.43,0-.65-.17-.65-.51,0-.43.21-.64.65-.64.34,0,.52.21.52.64ZM274.48,85.13c0,.34-.17.51-.52.51s-.52-.17-.52-.51.17-.51.52-.51.52.17.52.51ZM274.35,91.41c0,.26-.13.38-.39.38-.34,0-.52-.13-.52-.38s.17-.38.52-.38c.26,0,.39.13.39.38ZM274.22,97.69c0,.26-.09.38-.26.38-.26,0-.39-.13-.39-.38s.13-.38.39-.38c.17,0,.26.13.26.38ZM273.97,110.37c-.17,0-.26-.04-.26-.13l.26-.13.13.13c0,.08-.04.13-.13.13ZM281.33,53.62c0,.68-.3,1.03-.9,1.03-.69,0-1.03-.34-1.03-1.03,0-.6.34-.9,1.03-.9.6,0,.9.3.9.9ZM281.33,59.9c0,.6-.3.9-.9.9s-.91-.3-.91-.9c0-.51.3-.77.91-.77s.9.26.9.77ZM281.2,66.3c0,.51-.26.77-.78.77s-.78-.26-.78-.77c0-.6.26-.9.78-.9s.78.3.78.9ZM281.07,72.58c0,.43-.21.64-.65.64-.52,0-.78-.21-.78-.64,0-.51.26-.77.78-.77.43,0,.65.26.65.77ZM281.07,78.86c0,.34-.21.51-.65.51s-.65-.17-.65-.51c0-.43.21-.64.65-.64s.65.21.65.64ZM280.95,85.13c0,.34-.17.51-.52.51s-.52-.17-.52-.51.17-.51.52-.51.52.17.52.51ZM280.82,91.41c0,.26-.13.38-.39.38s-.39-.13-.39-.38.13-.38.39-.38.39.13.39.38ZM280.69,97.69c0,.26-.09.38-.26.38-.26,0-.39-.13-.39-.38s.13-.38.39-.38c.17,0,.26.13.26.38ZM280.43,110.37c-.09,0-.13-.04-.13-.13l.13-.13.13.13c0,.08-.04.13-.13.13ZM287.92,53.62c0,.68-.34,1.03-1.03,1.03-.6,0-.91-.34-.91-1.03,0-.6.3-.9.91-.9.69,0,1.03.3,1.03.9ZM287.79,59.9c0,.6-.3.9-.9.9s-.91-.3-.91-.9c0-.51.3-.77.91-.77s.9.26.9.77ZM287.67,66.3c0,.51-.26.77-.78.77s-.78-.26-.78-.77c0-.6.26-.9.78-.9s.78.3.78.9ZM287.54,72.58c0,.43-.22.64-.65.64s-.65-.21-.65-.64c0-.51.22-.77.65-.77s.65.26.65.77ZM287.54,78.86c0,.34-.22.51-.65.51s-.65-.17-.65-.51c0-.43.22-.64.65-.64s.65.21.65.64ZM287.41,85.13c0,.34-.17.51-.52.51s-.52-.17-.52-.51.17-.51.52-.51.52.17.52.51ZM287.28,91.41c0,.26-.13.38-.39.38s-.39-.13-.39-.38.13-.38.39-.38.39.13.39.38ZM287.28,97.69c0,.26-.13.38-.39.38-.17,0-.26-.13-.26-.38s.09-.38.26-.38c.26,0,.39.13.39.38ZM287.02,110.25c0,.08-.04.13-.13.13s-.13-.04-.13-.13l.13-.13c.09,0,.13.04.13.13ZM294.26,59.9c0,.6-.3.9-.9.9-.52,0-.78-.3-.78-.9,0-.51.26-.77.78-.77.6,0,.9.26.9.77ZM294.26,66.3c0,.51-.3.77-.9.77-.52,0-.78-.26-.78-.77,0-.6.26-.9.78-.9.6,0,.9.3.9.9ZM294.13,72.58c0,.43-.26.64-.78.64-.43,0-.65-.21-.65-.64,0-.51.22-.77.65-.77.52,0,.78.26.78.77ZM294,78.86c0,.34-.22.51-.65.51-.34,0-.52-.17-.52-.51,0-.43.17-.64.52-.64.43,0,.65.21.65.64ZM293.87,85.13c0,.34-.17.51-.52.51s-.52-.17-.52-.51.17-.51.52-.51.52.17.52.51ZM293.87,91.41c0,.26-.17.38-.52.38-.26,0-.39-.13-.39-.38s.13-.38.39-.38c.34,0,.52.13.52.38ZM293.74,97.69c0,.26-.13.38-.39.38-.17,0-.26-.13-.26-.38s.09-.38.26-.38c.26,0,.39.13.39.38ZM293.48,110.25c0,.08-.04.13-.13.13l-.13-.13.13-.13c.09,0,.13.04.13.13ZM300.72,59.9c0,.6-.26.9-.78.9-.6,0-.91-.3-.91-.9,0-.51.3-.77.91-.77.52,0,.78.26.78.77ZM300.72,66.3c0,.51-.26.77-.78.77-.6,0-.91-.26-.91-.77,0-.6.3-.9.91-.9.52,0,.78.3.78.9ZM300.59,72.58c0,.43-.21.64-.65.64-.52,0-.78-.21-.78-.64,0-.51.26-.77.78-.77.43,0,.65.26.65.77ZM300.46,78.86c0,.34-.17.51-.52.51-.43,0-.65-.17-.65-.51,0-.43.21-.64.65-.64.34,0,.52.21.52.64ZM300.46,85.13c0,.34-.17.51-.52.51s-.52-.17-.52-.51.17-.51.52-.51.52.17.52.51ZM300.33,91.41c0,.26-.13.38-.39.38-.34,0-.52-.13-.52-.38s.17-.38.52-.38c.26,0,.39.13.39.38ZM299.94,110.37c-.09,0-.13-.04-.13-.13l.13-.13.13.13c0,.08-.04.13-.13.13ZM306.66,103.97c0,.17-.09.26-.26.26s-.26-.08-.26-.26.09-.26.26-.26.26.09.26.26ZM306.54,110.25c0,.08-.04.13-.13.13s-.13-.04-.13-.13l.13-.13c.09,0,.13.04.13.13ZM313.26,91.41c0,.26-.13.38-.39.38s-.39-.13-.39-.38.13-.38.39-.38.39.13.39.38ZM313.26,97.69c0,.26-.13.38-.39.38-.17,0-.26-.13-.26-.38s.09-.38.26-.38c.26,0,.39.13.39.38ZM313.13,103.97c0,.17-.09.26-.26.26s-.26-.08-.26-.26.09-.26.26-.26.26.09.26.26ZM313,110.25c0,.08-.04.13-.13.13l-.13-.13.13-.13c.09,0,.13.04.13.13ZM319.85,60.15c0,.26-.17.38-.52.38l-.13-.13-5.56-1.92-.39-1.28,6.33,2.18c.34.17.43.43.26.77ZM320.24,66.3c0,.51-.3.77-.91.77-.52,0-.78-.26-.78-.77,0-.6.26-.9.78-.9.6,0,.91.3.91.9ZM320.11,72.58c0,.43-.26.64-.78.64-.43,0-.65-.21-.65-.64,0-.51.22-.77.65-.77.52,0,.78.26.78.77ZM319.98,78.86c0,.34-.22.51-.65.51-.34,0-.52-.17-.52-.51,0-.43.17-.64.52-.64.43,0,.65.21.65.64ZM319.85,85.13c0,.34-.17.51-.52.51s-.52-.17-.52-.51.17-.51.52-.51.52.17.52.51ZM319.85,91.41c0,.26-.17.38-.52.38-.26,0-.39-.13-.39-.38s.13-.38.39-.38c.34,0,.52.13.52.38ZM319.72,97.69c0,.26-.13.38-.39.38-.17,0-.26-.13-.26-.38s.09-.38.26-.38c.26,0,.39.13.39.38ZM319.59,103.97c0,.17-.09.26-.26.26-.09,0-.13-.08-.13-.26s.04-.26.13-.26c.17,0,.26.09.26.26ZM319.59,110.25c0,.08-.09.13-.26.13l-.13-.13.13-.13c.09,0,.17.04.26.13Z"/>
  <path class="cls-1" d="M319.59,59.38l10.6,3.59v1.15l-10.99-3.71c-.43,0-.52-.21-.26-.64,0-.26.22-.38.65-.38ZM326.57,66.3c0,.51-.3.77-.9.77-.52,0-.78-.26-.78-.77,0-.6.26-.9.78-.9.6,0,.9.3.9.9ZM326.44,72.58c0,.43-.26.64-.78.64-.43,0-.65-.21-.65-.64,0-.51.22-.77.65-.77.52,0,.78.26.78.77ZM326.31,78.86c0,.34-.22.51-.65.51-.34,0-.52-.17-.52-.51,0-.43.17-.64.52-.64.43,0,.65.21.65.64ZM326.18,85.13c0,.34-.17.51-.52.51s-.52-.17-.52-.51.17-.51.52-.51.52.17.52.51ZM326.18,91.41c0,.26-.17.38-.52.38-.26,0-.39-.13-.39-.38s.13-.38.39-.38c.34,0,.52.13.52.38ZM326.05,97.69c0,.26-.13.38-.39.38-.17,0-.26-.13-.26-.38s.09-.38.26-.38c.26,0,.39.13.39.38ZM325.92,103.97c0,.17-.09.26-.26.26-.09,0-.13-.08-.13-.26s.04-.26.13-.26c.17,0,.26.09.26.26ZM325.92,110.25c0,.08-.09.13-.26.13l-.13-.13.13-.13c.09,0,.17.04.26.13ZM332.25,110.25c0,.08-.09.13-.26.13l-.13-.13.13-.13c.09,0,.17.04.26.13ZM395.84,85.26c0,.26-.17.38-.52.38h-.13l-55.96-18.58v-1.15l15.38,5.12-18.22-25.62h-.39l-.13,39.07v20.37h-2.58v-19.22l.13-45.61h2.58l23.01,32.41,19.77,6.53v-38.82l2.58-.26v39.97l14.22,4.74c.34.17.43.38.26.64ZM338.59,110.25c0,.08-.09.13-.26.13l-.13-.13.13-.13c.09,0,.17.04.26.13ZM345.44,72.58c0,.43-.26.64-.78.64-.43,0-.65-.21-.65-.64,0-.51.21-.77.65-.77.52,0,.78.26.78.77ZM345.31,78.86c0,.34-.21.51-.65.51-.34,0-.52-.17-.52-.51,0-.43.17-.64.52-.64.43,0,.65.21.65.64ZM345.18,85.13c0,.34-.17.51-.52.51s-.52-.17-.52-.51.17-.51.52-.51.52.17.52.51ZM345.18,91.41c0,.26-.17.38-.52.38-.26,0-.39-.13-.39-.38s.13-.38.39-.38c.34,0,.52.13.52.38ZM345.05,97.69c0,.26-.13.38-.39.38-.17,0-.26-.13-.26-.38s.09-.38.26-.38c.26,0,.39.13.39.38ZM344.92,103.97c0,.17-.09.26-.26.26-.09,0-.13-.08-.13-.26s.04-.26.13-.26c.17,0,.26.09.26.26ZM344.92,110.25c0,.08-.09.13-.26.13l-.13-.13.13-.13c.09,0,.17.04.26.13ZM351.64,78.86c0,.34-.22.51-.65.51-.34,0-.52-.17-.52-.51,0-.43.17-.64.52-.64.43,0,.65.21.65.64ZM351.51,85.13c0,.34-.17.51-.52.51s-.52-.17-.52-.51.17-.51.52-.51.52.17.52.51ZM351.51,91.41c0,.26-.17.38-.52.38-.26,0-.39-.13-.39-.38s.13-.38.39-.38c.34,0,.52.13.52.38ZM351.38,97.69c0,.26-.13.38-.39.38-.17,0-.26-.13-.26-.38s.09-.38.26-.38c.26,0,.39.13.39.38ZM351.25,103.97c0,.17-.09.26-.26.26-.09,0-.13-.08-.13-.26s.04-.26.13-.26c.17,0,.26.09.26.26ZM351.25,110.25c0,.08-.09.13-.26.13l-.13-.13.13-.13c.09,0,.17.04.26.13ZM357.84,85.13c0,.34-.17.51-.52.51s-.52-.17-.52-.51.17-.51.52-.51.52.17.52.51ZM357.84,91.41c0,.26-.17.38-.52.38-.26,0-.39-.13-.39-.38s.13-.38.39-.38c.34,0,.52.13.52.38ZM357.71,97.69c0,.26-.13.38-.39.38-.17,0-.26-.13-.26-.38s.09-.38.26-.38c.26,0,.39.13.39.38ZM357.59,103.97c0,.17-.09.26-.26.26-.09,0-.13-.08-.13-.26s.04-.26.13-.26c.17,0,.26.09.26.26ZM357.59,110.25c0,.08-.09.13-.26.13l-.13-.13.13-.13c.09,0,.17.04.26.13ZM381.24,85.13v1.67l-.13,18.06h-2.58l-19-26.9,4.39,1.41,14.22,20.24h.52l.13-15.25,2.46.77ZM364.18,91.41c0,.26-.17.38-.52.38-.26,0-.39-.13-.39-.38s.13-.38.39-.38c.34,0,.52.13.52.38ZM364.05,97.69c0,.26-.13.38-.39.38-.17,0-.26-.13-.26-.38s.09-.38.26-.38c.26,0,.39.13.39.38ZM363.92,103.97c0,.17-.09.26-.26.26-.09,0-.13-.08-.13-.26s.04-.26.13-.26c.17,0,.26.09.26.26ZM363.92,110.25c0,.08-.09.13-.26.13l-.13-.13.13-.13c.09,0,.17.04.26.13ZM370.25,103.97c0,.17-.09.26-.26.26-.09,0-.13-.08-.13-.26s.04-.26.13-.26c.17,0,.26.09.26.26ZM370.25,110.25c0,.08-.09.13-.26.13l-.13-.13.13-.13c.09,0,.17.04.26.13ZM376.58,110.25c0,.08-.09.13-.26.13l-.13-.13.13-.13c.09,0,.17.04.26.13ZM382.92,110.25c0,.08-.09.13-.26.13l-.13-.13.13-.13c.09,0,.17.04.26.13ZM389.51,91.41c0,.26-.17.38-.52.38-.26,0-.39-.13-.39-.38s.13-.38.39-.38c.34,0,.52.13.52.38ZM389.38,97.69c0,.26-.13.38-.39.38-.17,0-.26-.13-.26-.38s.09-.38.26-.38c.26,0,.39.13.39.38ZM389.25,103.97c0,.17-.09.26-.26.26-.09,0-.13-.08-.13-.26s.04-.26.13-.26c.17,0,.26.09.26.26ZM389.25,110.25c0,.08-.09.13-.26.13l-.13-.13.13-.13c.09,0,.17.04.26.13ZM395.84,91.41c0,.26-.17.38-.52.38-.26,0-.39-.13-.39-.38s.13-.38.39-.38c.34,0,.52.13.52.38ZM395.71,97.69c0,.26-.13.38-.39.38-.17,0-.26-.13-.26-.38s.09-.38.26-.38c.26,0,.39.13.39.38ZM395.58,103.97c0,.17-.09.26-.26.26-.09,0-.13-.08-.13-.26s.04-.26.13-.26c.17,0,.26.09.26.26ZM395.58,110.25c0,.08-.09.13-.26.13l-.13-.13.13-.13c.09,0,.17.04.26.13Z"/>
  <path class="cls-1" d="M342.46,11.34c.52-.85,1.42-1.28,2.71-1.28s2.2.38,2.71,1.15c.6.68.9,1.75.9,3.2v1.02h-6.2c.09.94.34,1.75.78,2.43.52.6,1.16.9,1.94.9.95,0,1.94-.17,2.97-.51l.26,1.03c-.95.34-1.94.51-2.97.51-1.29,0-2.33-.43-3.1-1.28-.69-.94-1.03-2.14-1.03-3.59,0-1.54.34-2.73,1.03-3.59ZM342.59,14.42h5.17c0-2.22-.82-3.33-2.46-3.33-1.72,0-2.63,1.11-2.71,3.33Z"/>
  <path class="cls-1" d="M353.71,10.96c1.29-.6,2.41-.9,3.36-.9.86,0,1.51.26,1.94.77.52.68.78,1.49.78,2.43v6.41h-1.03v-6.41c0-.68-.17-1.2-.52-1.54-.26-.43-.73-.64-1.42-.64-.78,0-1.81.3-3.1.9v7.69h-1.03v-9.48h1.03v.77Z"/>
  <path class="cls-1" d="M371.03,18l.13,1.79-1.03.13-.13-1.15c-.95.68-1.9,1.02-2.84,1.02-1.12,0-2.07-.43-2.84-1.28-.6-.85-.9-2.05-.9-3.59,0-1.45.34-2.65,1.03-3.59.78-.85,1.81-1.28,3.1-1.28.86,0,1.68.17,2.46.51v-4.23h1.03v11.66ZM365.21,17.75c.52.68,1.21,1.02,2.07,1.02.78,0,1.68-.38,2.71-1.15v-6.02c-.52-.17-.95-.3-1.29-.38-.26-.09-.65-.13-1.16-.13-1.03,0-1.77.34-2.2,1.02-.52.68-.78,1.62-.78,2.82,0,1.28.21,2.22.65,2.82Z"/>
</svg>